<svg xmlns="http://www.w3.org/2000/svg" width="200" height="74" viewBox="0 0 200 74"><path fill-rule="evenodd" d="M12.976 12.078H30.29V24.02H12.976v32.05H0V0h12.976v12.078zm35.706 0l2.043 3.879c3.474-3.062 8.072-5.104 12.568-5.104 11.852 0 21.56 10.411 21.56 23.374V56.07H72.386V34.227c0-6.328-4.496-11.942-10.627-11.942-6.13 0-10.626 5.614-10.626 11.942V56.07H38.26V12.078h10.422zM200 12.05l-16.144 22.557 15.224 21.435h-14.815l-8.379-11.738-9.298 11.738h-13.794l15.225-21.435-16.144-22.557h14.815l9.196 12.963 9.298-12.963H200zm-91.579.187l.92 5.103a23.459 23.459 0 0 1 16.348-6.634c12.874 0 23.296 10.513 23.296 23.374 0 12.962-10.422 23.373-23.296 23.373-6.335 0-12.16-2.45-16.348-6.634V74H97.386V12.237h11.035zm28.275 21.752c0-3.164-1.226-6.124-3.372-8.37-2.146-2.347-5.007-3.572-8.072-3.572-3.065 0-6.029 1.225-8.174 3.572a12.068 12.068 0 0 0-3.372 8.37c0 3.266 1.226 6.226 3.372 8.472a11.289 11.289 0 0 0 8.174 3.47c3.065 0 5.926-1.225 8.072-3.47 2.146-2.246 3.372-5.206 3.372-8.472z"/></svg>